<?xml version="1.0" encoding="UTF-8"?>
<svg id="_Слой_1" data-name="Слой 1" xmlns="http://www.w3.org/2000/svg" viewBox="0 0 13.47 16">
  <defs>
    <style>
      .cls-1 {
        fill: #057f36;
      }

      .cls-2 {
        fill: #1987c9;
      }

      .cls-3 {
        fill: #fab71d;
      }

      .cls-4 {
        fill: #d90652;
      }
    </style>
  </defs>
  <path class="cls-4" d="m13.13,5.93L7.54.33c-.21-.22-.5-.33-.8-.33s-.59.12-.8.33L.33,5.93c-.22.21-.33.5-.33.8v8.13c0,.63.51,1.14,1.14,1.14h11.19c.63,0,1.14-.51,1.14-1.14V6.73c0-.31-.12-.59-.33-.8Zm-.14,8.93c0,.37-.3.67-.67.67H1.14c-.37,0-.67-.3-.67-.67V6.73c0-.18.07-.35.19-.47L6.26.67c.25-.26.69-.25.95,0l5.59,5.59c.13.13.2.29.2.47v8.13Z"/>
  <rect class="cls-3" x="3.01" y="6.15" width="3.4" height="3.32" rx=".82" ry=".82"/>
  <rect class="cls-1" x="7.05" y="6.15" width="3.4" height="3.32" rx=".82" ry=".82"/>
  <rect class="cls-2" x="3.01" y="10.07" width="3.4" height="3.32" rx=".82" ry=".82"/>
  <rect class="cls-4" x="7.05" y="10.07" width="3.4" height="3.32" rx=".82" ry=".82"/>
</svg>