<svg xmlns="http://www.w3.org/2000/svg" id="_Слой_1" data-name="Слой 1" viewBox="0 0 847.15 237.78"><defs><style>.cls-1{fill:#057f36}.cls-2{fill:#1987c9}.cls-3{fill:#fab71d}.cls-4{fill:#2d2d2d}.cls-5{fill:#d90652}</style></defs><path d="M194.48 88.67 111.63 5.82C108.46 2.6 104.24.86 99.71.86S90.97 2.6 87.79 5.82L4.96 88.67C1.74 91.84 0 96.06 0 100.59v120.33c0 9.26 7.57 16.87 16.87 16.87h165.69c9.31 0 16.87-7.61 16.87-16.87V100.59c0-4.52-1.74-8.74-4.96-11.92Zm-2 132.24c0 5.44-4.44 9.92-9.91 9.92H16.87c-5.48 0-9.91-4.48-9.91-9.92V100.58c0-2.61 1.04-5.17 2.87-7l82.88-82.84c3.74-3.78 10.26-3.74 14 0l82.84 82.84c1.91 1.87 2.91 4.35 2.91 7v120.33Z" class="cls-5"/><rect width="50.4" height="49.13" x="44.58" y="91.91" class="cls-3" rx="12.18" ry="12.18"/><rect width="50.4" height="49.13" x="104.45" y="91.91" class="cls-1" rx="12.18" ry="12.18"/><rect width="50.4" height="49.13" x="44.58" y="149.92" class="cls-2" rx="12.18" ry="12.18"/><rect width="50.4" height="49.13" x="104.45" y="149.92" class="cls-5" rx="12.18" ry="12.18"/><rect width="29.29" height="28.55" x="230.93" y="16.68" class="cls-3" rx="5.22" ry="5.22"/><rect width="29.29" height="28.55" x="230.93" y="92.46" class="cls-1" rx="5.22" ry="5.22"/><rect width="29.29" height="28.55" x="232.75" y="181.81" class="cls-2" rx="5.22" ry="5.22"/><path d="M322.98 10.33h-18.59v50.73h-10.33V10.33h-18.51V.87h47.43zM374.01 51.69v9.37h-42.06V.87h40.94v9.37h-30.53v15.65h27.08v9.2h-27.08v16.6zM429.67 10.85c-1.91-3.21-4.66-5.68-8.29-7.4-3.58-1.72-7.82-2.56-12.66-2.56h-23.09v60.19h10.43V43.72h12.66c4.84 0 9.08-.88 12.66-2.61 3.63-1.72 6.38-4.19 8.29-7.45 1.96-3.21 2.89-7.03 2.89-11.36s-.93-8.24-2.89-11.45m-11.13 20.3c-2.33 2.05-5.77 3.07-10.33 3.07h-12.15V10.33h12.15c4.56 0 8.01 1.02 10.33 3.07 2.37 2.09 3.54 5.03 3.54 8.89s-1.16 6.75-3.54 8.84ZM486.51 10.85c-1.96-3.21-4.7-5.68-8.33-7.4-3.58-1.72-7.82-2.56-12.66-2.56h-23.09v60.19h10.43V43.72h12.66c4.84 0 9.08-.88 12.66-2.61 3.63-1.72 6.38-4.19 8.33-7.45 1.91-3.21 2.89-7.03 2.89-11.36s-.98-8.24-2.89-11.45m-11.17 20.3c-2.33 2.05-5.77 3.07-10.33 3.07h-12.15V10.33h12.15c4.56 0 8.01 1.02 10.33 3.07 2.37 2.09 3.54 5.03 3.54 8.89s-1.16 6.75-3.54 8.84ZM499.3.87h10.26V43.6L539.68.87h9.7v60.19h-10.26V18.41L509 61.06h-9.7zM605.78 10.33h-18.59v50.73h-10.33V10.33h-18.51V.87h47.43zM666.2 15.04c-2.65-4.7-6.24-8.38-10.85-11.03-4.56-2.65-9.73-4-15.46-4s-10.85 1.35-15.46 4-8.19 6.38-10.8 11.08c-2.65 4.75-3.96 10.01-3.96 15.87s1.3 11.13 3.96 15.87c2.61 4.75 6.19 8.43 10.8 11.08s9.73 4 15.46 4 10.89-1.35 15.46-4c4.61-2.65 8.19-6.33 10.85-11.03 2.61-4.7 3.91-10.01 3.91-15.92s-1.3-11.22-3.91-15.92m-9.17 26.81c-1.68 3.21-4.05 5.77-7.03 7.54-2.98 1.82-6.38 2.75-10.1 2.75s-7.08-.93-10.1-2.75c-2.98-1.77-5.31-4.33-7.03-7.54-1.72-3.26-2.56-6.89-2.56-10.89s.84-7.63 2.56-10.89c1.72-3.21 4.05-5.73 7.03-7.54 3.03-1.82 6.38-2.7 10.1-2.7s7.12.88 10.1 2.7 5.35 4.33 7.03 7.54c1.72 3.26 2.61 6.89 2.61 10.89s-.88 7.63-2.61 10.89M725.69 10.85c-1.91-3.21-4.66-5.68-8.29-7.4-3.58-1.72-7.82-2.56-12.71-2.56h-23.04v60.19h10.38V43.72h12.66c4.89 0 9.12-.88 12.71-2.61 3.63-1.72 6.38-4.19 8.29-7.45 1.91-3.21 2.89-7.03 2.89-11.36s-.98-8.24-2.89-11.45m-11.13 20.3c-2.37 2.05-5.77 3.07-10.33 3.07h-12.2V10.33h12.2c4.56 0 7.96 1.02 10.33 3.07 2.33 2.09 3.54 5.03 3.54 8.89s-1.21 6.75-3.54 8.84ZM738.53.87h10.25V43.6L778.9.87h9.7v60.19h-10.26V18.41l-30.12 42.65h-9.69zM823.83.88c-4.75 0-8.89.84-12.38 2.61-3.54 1.77-6.28 4.28-8.19 7.59-1.91 3.35-2.89 7.31-2.89 11.87 0 4.8 1.07 8.85 3.17 12.2 2.09 3.35 5.12 5.77 9.03 7.36l-12.01 18.57h10.94l10.43-16.81h14.99v16.81h10.24V.88h-23.32Zm13.08 34.31h-13.13c-4.19 0-7.36-1.07-9.54-3.26-2.19-2.14-3.31-5.17-3.31-9.12s1.16-7.17 3.4-9.31c2.28-2.09 5.54-3.17 9.82-3.17h12.76zM275.56 127.81V85.67h7.7v29.92l22.64-29.92h7.28v42.14h-7.7V97.95l-22.64 29.86zM362.66 85.67h7.83v42.14h-7.83v-18.06h-21.79v18.06h-7.82V85.67h7.82v17.4h21.79zM420.93 85.67v6.62h-13.97v35.52h-7.76V92.29h-13.91v-6.62zM443.56 121.25h23.77v6.56h-31.6V85.67h30.76v6.56h-22.93v10.96h20.34v6.44h-20.34zM514.59 89.67c-3.21-2.67-7.59-4-13.12-4h-17.34v42.13h7.82v-12.17h9.52c5.53 0 9.9-1.33 13.12-4.03 3.21-2.69 4.82-6.34 4.82-10.95s-1.61-8.32-4.82-10.98m-5.72 17.19c-1.77 1.44-4.35 2.16-7.76 2.16h-9.15V92.29h9.15c3.41 0 5.99.73 7.76 2.16 1.77 1.44 2.65 3.52 2.65 6.2s-.88 4.76-2.65 6.2ZM565.96 103.34c-2.71-2.26-6.59-3.4-11.64-3.4h-11.68V85.67h-7.71v42.13h18.12c5.39 0 9.56-1.23 12.53-3.71 2.97-2.47 4.46-6.02 4.46-10.68s-1.36-7.81-4.07-10.08Zm-6.22 16.35c-1.65 1.4-4 2.1-7.04 2.1h-10.05V105.9h10.05c6.34 0 9.51 2.56 9.51 7.65 0 2.69-.82 4.74-2.47 6.14M593.92 121.25h23.78v6.56h-31.6V85.67h30.76v6.56h-22.94v10.96h20.35v6.44h-20.35zM664.95 89.67c-3.2-2.67-7.58-4-13.12-4h-17.34v42.13h7.82v-12.17h9.52c5.54 0 9.91-1.33 13.12-4.03 3.21-2.69 4.82-6.34 4.82-10.95s-1.61-8.32-4.82-10.98m-5.71 17.19q-2.67 2.16-7.77 2.16h-9.15V92.29h9.15c3.41 0 5.99.73 7.77 2.16 1.76 1.44 2.65 3.52 2.65 6.2s-.89 4.76-2.65 6.2ZM714.85 85.67h7.83v42.14h-7.83v-18.06h-21.79v18.06h-7.82V85.67h7.82v17.4h21.79zM773.63 103.34c-2.71-2.26-6.59-3.4-11.65-3.4h-11.67V85.67h-7.71v42.13h18.12c5.38 0 9.55-1.23 12.52-3.71 2.97-2.47 4.46-6.02 4.46-10.68s-1.35-7.81-4.06-10.08Zm-6.22 16.35c-1.66 1.4-4 2.1-7.05 2.1h-10.04V105.9h10.04c6.35 0 9.52 2.56 9.52 7.65 0 2.69-.83 4.74-2.47 6.14M783.77 85.67h7.71v42.14h-7.71zM807.25 85.67h9.03l9.93 14.08 9.93-14.08h9.15l-14.14 20.23 15.29 21.91h-9.27l-10.96-15.35-10.89 15.35h-9.03l15.23-21.61zM333.66 171.55c-2.53-4.21-6.19-7.49-10.91-9.77-4.8-2.23-10.4-3.37-16.76-3.37h-30.44v79.37h13.73v-22.9H306c6.36 0 11.96-1.14 16.76-3.37 4.72-2.27 8.38-5.6 10.91-9.81 2.53-4.29 3.83-9.26 3.83-15.03s-1.31-10.86-3.83-15.12Zm-14.65 26.78c-3.16 2.74-7.66 4.08-13.64 4.08h-16.08v-31.54h16.08c5.98 0 10.48 1.35 13.64 4.13 3.07 2.69 4.59 6.57 4.59 11.66s-1.52 8.97-4.59 11.66ZM405.9 225.43v12.35h-55.44v-79.35h53.96v12.36h-40.23v20.63h35.7v12.13h-35.7v21.88zM516.27 158.43v79.35h-94.95v-79.35h13.52v66.88h27.25v-66.88h13.52v66.88h27.14v-66.88zM592.52 225.43v12.35h-55.45v-79.35h53.97v12.36H550.8v20.63h35.7v12.13h-35.7v21.88zM673.52 158.43v79.35H659.8v-34.01h-38.23v34.01h-13.74v-79.35h13.74v32.76h38.23v-32.76zM694.33 158.43h13.52v56.34l39.7-56.34h12.79v79.35h-13.52v-56.22l-39.71 56.22h-12.78zM781.14 158.43h13.52v56.34l39.71-56.34h12.78v79.35h-13.52v-56.22l-39.71 56.22h-12.78z" class="cls-4"/><rect width="11.39" height="31.27" x="808.45" y="133.14" class="cls-4" rx=".51" ry=".51" transform="rotate(-90 814.145 148.775)"/></svg>